/* XPM */
static char *result[] = {
/* columns rows colors chars-per-pixel */
"64 64 90 1 ",
"  c #0B0003",
". c #110104",
"X c #1E0108",
"o c #25000A",
"O c #28010B",
"+ c #33010E",
"@ c #38010F",
"# c #3D0410",
"$ c #410710",
"% c #4C0E14",
"& c #530F14",
"* c #521314",
"= c #5C1616",
"- c #551B15",
"; c #591D15",
": c #591818",
"> c #6B0F11",
", c #6B1413",
"< c #6F1B15",
"1 c #601A18",
"2 c #721B15",
"3 c #672019",
"4 c #6B231A",
"5 c #752017",
"6 c #7A2319",
"7 c #7C2C1B",
"8 c #673017",
"9 c #673218",
"0 c #77301F",
"q c #6D2E23",
"w c #693622",
"e c #6B3823",
"r c #8D281C",
"t c #82301C",
"y c #96301E",
"u c #99361F",
"i c #993620",
"p c #9D532C",
"a c #A74B2D",
"s c #A1552C",
"d c #AB522F",
"f c #A95D2F",
"g c #AE602F",
"h c #AD6130",
"j c #B16631",
"k c #B66933",
"l c #B86B33",
"z c #B46F39",
"x c #BD7436",
"c c #BF7836",
"v c #BD773C",
"b c #C27F34",
"n c #C17D3C",
"m c #C68434",
"M c #CA8C35",
"N c #C58B3B",
"B c #CB8F3D",
"V c #CC923E",
"C c #CE9A3A",
"Z c #D39D3E",
"A c #DCBB2B",
"S c #D7A33F",
"D c #D9A63D",
"F c #DDAF3E",
"G c #DEB03E",
"H c #E5BD34",
"J c #EBCA2F",
"K c #EED12F",
"L c #F1D42F",
"P c #E7C132",
"I c #E9C533",
"U c #EDCC32",
"Y c #EED43A",
"T c #F1D431",
"R c #F1D73E",
"E c #F1D83F",
"W c #D09740",
"Q c #D39C42",
"! c #D6A241",
"~ c #D8A542",
"^ c #DAA941",
"/ c #D6A449",
"( c #D9A94A",
") c #D2AC65",
"_ c #DABA69",
"` c #D1C177",
"' c #DFD67D",
"] c #E0D989",
"[ c #F0EC95",
"{ c #F1F1A1",
/* pixels */
"                                                                ",
"    .. .  .. .  . . . . . . ..   .. . .  .. .  .. . . .   ..    ",
" .+@$*#@###$*#$*$$*$$*$#*##-$#*$$-#$*@#-$$*$$*$#*#$-#$%###++ooX ",
"  @#$:%%%%144444444<44444444444444444444444<44444444444*%%%#ooX ",
"  #$$4sfffhhhjjhgjgfgjjfgjjhhjhhgjjfjjjhgjjggjjfgjhhhhhfffp%ooo ",
" .*=<0zkgjkknWWcnWZnnWCncZWccWWcnZVnbCWxnWVnnWZncZWcxllvjjs:%$#.",
" .#*sz)ay6jcZ^^~~^^!Z^^!D^^^!^^~ZD^^!^^!~^^!ZDFZD^^!Wcv)ay6sp4*.",
"  +%fkaar2N!IPPPIUIUIIUIIIUIIPHPIHHUIIUIIUIUIIIIPPPP^QWdar2hh4#.",
" .@%fjir>2VFDMcMDGFH^^FF^G^HDMmbbmMDH^GGGGGGGGGFMbmF^!Cir>,gj4$.",
" .@*fg6227CUUPDPUUUUUUTUTUUUJJPZZIJUUUUUUUUUUUUUPDPUI^Wt222gg4*.",
"  #<gkgmNZILKUGKLLLLTLLLTTLLLLU^DKLLLLLLLLTTLLLLUFULU^QBBNjkg4$.",
"  $4glnZmILLLUGULLLLTLLLLLLLLLU^^ULLLLLLLLLLLLLKUFTTTUDb!Qxkh4$.",
" .*qgnZHMILLLK^TLLLLLLLLLLLLLLU^^ULLLLLLLLLLLLLLUFULLLPMHDckh4*.",
"  #<jWDIFKLLLKGULLLLLLLLLLLLLLUF^ULLLLLLLLLLLLLLTFULLLUDI^Vxh4$.",
"  #4jC^IFUJUJUGULLLLLLLLLLLLLLU^^ULLLLLLLLLLLLLLU^UJUJUHU^Wxg4#.",
" .*4fnSUFPMSMI^KKLLLLLLLLLLLLLT^^ULLLLLLLLLLLLLLUHIMQBP^I!clh4-.",
"  $4hc~IGIZ!ZI^UTTLLLLLLLLLLLLU^FULLLLLLLLLLLLLLUGIQQZIGUSclh4#.",
" .#4jW^IGIMZMIHULTLLLLLLLLLKLLU^^JLLLLLLLLLLLLLLUGIMSMIGUDWxh4#.",
" .-4jW^UGUJUJUFULTRYAAJLLLLLLLU^^ULLLLLLLLRRAATLU^UJUJUGI^Wlh4*.",
"  #4hc~IGULLLTFULR['98PLLLLLLLUD^ULLLLLLLR['e9ALUHULLLUGI^xlh4$.",
"  $4hc~IGUTLTKGULR{]w:ATLLLLLLU^^ULLLLLLLR{]8-ALUGULLLUGI!ckh4$.",
" .-4jW^IFKLLLUGULR'`q;ALLLLLLLU^^ULLLLLLLY'`0;ALT^ULLLUFI^Wlh4-.",
"  $4hW^IGULLLUFULAeq1;ALLLLLLLUF^ULLLLLLLAeq1;ALUGUTLLUGU^Wxh4$.",
" .#4hc~UGULLLUFTLA;==;ALLLLLLLU^^KLLLLLLLA;=1;ALUGTTLLUGI~clh4#.",
" .*4hc~IGUTTTUGULA;;1;ALLLLLLLU^^ULLLLLLLA;==;ALUGULLLUGU!clh4*.",
"  #4jW^IGKLTTKGULP;==;ALLLLLLLL^FULLLLLLLA;11;ALKGULLLUGI^Vxh4$.",
" .$4jW^IGULLLUFULA;11;ALLLLLLLU^^ULLLLLLLA;1=;ALUGKTLLUGU^Wxh4$.",
" .-4hc~UGULLTUFTLA;=;;ALLLLLLLU^^ULLLLLLLA;=1;ALUFULLLUGI!ckh4*.",
"  #4gcDIGULLLUGULA;,=;ALLLLLLLJ^^KLLLLLLLA;=1;ALUHUTLLUFI!clh4#.",
"  $4jZ^IFKLLLU^TLA;==;ALLLLLLLU^^UKLLLLLLA;;=;ALK^UTLLUGI^Wxh4@.",
" .*4jW^IFKTLLK^ULA;$$;ALLLLLLKJD^ULLLLLLLA:$$;ATUFUTLLUFU^Wlf*+.",
"  #4hc~IFUTLLUGKLA;;=;AKLLLLLLKF^ULLLLLLLA;==;ATKFUTLTUFU!clf%O ",
" .$4hc!UFULLTU^TLA:1=;ALLLLLLLU^^ULLLLLLLA;==;ALTFULLLUFI^clf%o ",
" .*4jW^IFULLTKGULA:$$;ALLLLLLLU^FULLLLLLLA-$$-ALUFULLLKGI^Wlf%+.",
"  $4jW^UFULLLUFULA;*:;ALLLLLLLU^^ULLLLLLLA;:=;ALUFTLLLUGU^Wxf%o ",
"  #4hc!IGULLLTGULA-$$-ALLLLLLLT^^ULLLLLLLA-$$-ATUFULLLUGI!clf%O ",
" .*4hc!UGULLLUGKLA-$&-ALLLLLLLU^DULLLLLLLA;*$;ALTFULLLUGI!clf%+ ",
"  $4jW^IGULLLUGULP-@$-ALLLLLLLUD^ULLLLKLLA;$$;ALUFUTLLUGI^Wxf%O ",
" .#4jW^IGKLLLKGULA-@#-ALLLLLLLU^^ULLLLLLLA*##*ALU^UTLLUGU^Wlf%o ",
" .*4hc!UFULLLUGULA8--9ALLLLLLLU^^ULLLLLLTA9--9ALUHUTLLUGI!clf%+.",
"  $4jc~IFULLLUFULLPAAAKLLLLLLLT^^ULLLLLLLKAAAALLUFULLLUGU!clf%o ",
" .#4jC^IGULLLTFTLLLLLLLLLLLKLLU^^ULLLLLLLLLLLLLLUFULLLUFI^Wlf%O ",
" .*4jW^UFULLLUFULLLLLLLLLLLLLLU^^ULLLLLLLLLLLLLLTFTLLLUGU^Wxf%+ ",
"  #4hc~IFTLLLUFULLLLLLLLLLLLLLUD^KLLLLLLLLLLLLKLUFULLLUFI!clf%O ",
"  $4hc~IFULLLUGULLLLLLLLLLLLLLU^^ULLLLLLLLLLLLLLUGULLLTFI!clf%O ",
" .-4jW^IFUJUJUFLLKLLLLLLLLLLLLU^FULLLLLLLLLLLLLLUGUJUJUFI^Wxf%+.",
"  #4hW^IGPMZMIGJLLLLLLLLLLLLLLT^^ULLLLLLLLLLLLLLJGIMQBPHU^Wlf%o ",
" .$4hc~UGISZSIGJLLLLLLLLLLLLLLU^^ULLLLLLLLLLLLLLTFISQQI^I!clf%O ",
" .*4hc~I^IMZMIGULLLLKLLLLLLLLLU^^KLLLLLLLLLLLLLLUFPMZMIGIDbkd%+.",
"  #4jWDIGKJUJUGKLLLLLLLLLLLLLLUD^UKLLLLLLLLLLLLTUGUJUJUGI^Vnf%o ",
" .$4jW^IGKTLTUFULLLLLLLLLLLKLLU^^ULLLLLLLLLLLLLLUGTLLLUGU^Wlf%o ",
" .*4hc~IFUTLLKGULLLLLLLLLLLLLLT^^ULLLLLLLLLLLLLLUFULLTUFI!nkf%+.",
"  #4hxZHmULLLUFULLLLLTLTLLLLLLU^^UTLLLLLLLLKLLLLTFULLLPmHSxlf%o ",
"  $4hlcZmILLLTHULLLLLLLTLLLLLLKD^KLLLLLLLLLLLLLLUFULLUDbSZxkf%O ",
" .-4glvWVZIUUI!IUKUUUUUKUUUUUJHZSPUUUUKUUUUUUUUUIDIUI^~/WBjkf%+.",
"  @*fv)dutC^F^M^GGGGGGGGFFGGFMmbbmMDGFFGGGGGFFGFFMFFF^(_du6gf%o ",
"  #%fkaar2V~IIIIIIUIUIIIIUIIIPPHHPPIUIUIIIUUIUIUUPIUP^Qdar2gf%O ",
" .+&hgur><MZ!^^~!^^!^^^!^^^!D^^DDD^!!^^!!^^!!^^!!^DZ!QBur>,gh%+.",
"  @%ps6,,5jxcWWccWWcxWWcxWWccWVccVZccWWccWWcxWWcxWWnxlj6,,2sp%o ",
" .+#%:shfgkkklxklxlkllxlkxxlllxkkxllllxkkxllllxlkxxlklkhggs:%#o ",
"  ooO%pfffffffffffffffffffffffffffffffffffffffffffffffffffp%ooo ",
"  ooO#%%%%%%%%%%%%%%%%%%%%%%%%%%%%%%%%%%%%%%%%%%&%%%%%%%%%%#Ooo ",
"  XXoo+Oo+Oo+oo+OO+Oo+oO+oo+OO+Oo+oO+Oo+Oo+oo+Oo+Oo+oo+Oo+ooooX ",
"      .  .  ..    .   .  .    .   .    .  ..    .   .           "
};
